PathFileType	4	(X/Y/Z)	OpenSim_Sub03_EMGStiffKnee_Accel.trc
DataRate	CameraRate	NumFrames	NumMarkers	Units	OrigDataRate	OrigDataStartFrame	OrigNumFrames
100	100	20	8	m	100	1900	7597
Frame#	Time	torso_imu_offset_imu	pelvis_imu_offset_imu	tibia_r_imu_offset_imu	femur_r_imu_offset_imu	tibia_l_imu_offset_imu	femur_l_imu_offset_imu	toes_r_imu_offset_imu	toes_l_imu_offset_imu
				X1	Y1	Z1	X2	Y2	Z2	X3	Y3	Z3	X4	Y4	Z4	X5	Y5	Z5	X6	Y6	Z6	X7	Y7	Z7	X8		Y8	Z8	

1900	18.99000000	8.60642321	2.70327787	5.26295153	9.21794070	-0.57994398	2.22462836	11.32740091	2.68594983	0.87244927	7.64126159	-3.04866031	2.68381100	9.49579804	-0.36602465	-0.25909156	9.01638070	0.17889705	-1.58765987	11.02973316	-3.18438945	7.73889425	6.28832241	1.73072474	10.03229871
1901	19	8.49822059	2.76069439	5.25552416	9.07383058	-0.60005112	2.17152813	11.28547985	2.85173895	0.98371690	7.73167794	-4.08400351	2.88592750	9.38933256	-0.63889584	-0.47399856	9.00762560	0.06670716	-1.56598489	11.30504449	-2.36778312	7.86377357	5.67024356	1.78583704	10.42721465
1902	19.01000000	8.46257149	2.76072257	5.28561242	8.97424480	-0.69939988	1.98979231	10.91268795	3.30279883	1.06012710	7.82060809	-5.04844013	2.91735188	9.48485403	-0.84371259	-0.62485469	9.18858371	-0.16060642	-1.53888557	13.04830431	-1.63044086	8.76273767	5.67100680	1.90974902	10.47302469
1903	19.02000000	8.48153228	2.69712967	5.33070088	8.98387726	-0.79360892	1.95535090	10.52518724	3.90615024	1.33364944	7.86295670	-5.78520167	2.87795785	9.66649255	-0.62621116	-0.71993354	9.36585522	-0.31985591	-1.60825137	15.09824068	-1.23287680	9.33952353	5.73982415	2.00493839	10.45443995
1904	19.03000000	8.56903038	2.62420025	5.31281191	8.98233517	-0.97698733	1.90815316	10.48981483	4.43795252	1.30447208	7.89137511	-6.18676325	2.69835388	9.80371152	-0.73354882	-0.60604346	9.47263430	-0.29225663	-1.71144330	14.89076613	-1.41976699	8.78344934	5.91324074	1.73943054	10.34318536
1905	19.04000000	8.61323042	2.58190254	5.35362952	9.12575225	-1.13262937	1.87282140	10.55240365	4.18540991	0.66201460	8.04361719	-6.35742763	2.57588197	10.02610703	-1.37135072	-0.52685796	9.63749558	-0.16526463	-1.62817283	14.24661760	-0.70325990	7.95854309	5.71050890	1.46698542	10.53126517
1906	19.05000000	8.74679580	2.46827882	5.33402688	9.34197744	-1.26412733	1.85278841	10.68075845	3.71517505	0.73736274	8.19746450	-6.33370690	2.54177256	10.40831464	-1.80740274	-0.26035004	9.89898339	-0.21231628	-1.69398480	14.05203457	-0.05218093	7.27616492	5.56952556	1.26511229	10.71462966
1907	19.06000000	8.88439726	2.43060673	5.35358928	9.59761769	-1.29102280	1.81315857	10.72981097	3.64356126	0.74713665	8.31186775	-6.23791794	2.57005357	10.50842088	-1.60002892	-0.18624983	10.08792268	-0.31922009	-1.70178101	13.81618070	-0.09290076	6.41084933	5.93303958	1.09405859	10.62130676
1908	19.07000000	9.03682974	2.34924437	5.39649680	9.82464467	-1.28028879	1.85640576	10.68028486	3.41481550	0.60607625	8.32605470	-6.04045928	2.80901632	10.61497342	-1.32927149	-0.19648416	10.10622529	-0.37100552	-1.76979873	13.79711841	-0.13559544	5.56804495	6.18769535	0.93532416	10.41481733
1909	19.08000000	9.26812443	2.21810044	5.47865088	10.02369598	-1.18935542	1.88054492	10.34167137	2.83045722	0.77676542	8.48216602	-5.65132835	3.01661526	10.63474147	-1.03620267	-0.15306572	9.97049607	-0.28475782	-1.99422741	14.80052770	-0.19236295	4.93466845	6.04466096	0.94230274	10.54709299
1910	19.09000000	9.45638131	2.15017212	5.57264483	10.15775324	-1.18386614	1.94914830	10.23225296	2.53228650	0.88104006	8.69260498	-5.31829722	3.29425444	10.51192941	-0.72318497	-0.13077140	9.88336171	0.02428683	-2.09253495	14.96463231	-0.01789467	3.79167822	5.71403173	1.01186156	10.72933883
1911	19.10000000	9.56566546	2.21316290	5.58908181	10.02266126	-1.18296584	2.00106875	10.18009186	2.56048030	0.47457760	8.94361022	-5.15917776	3.60973749	10.52220579	-0.17285797	-0.22303113	9.80367994	0.15295250	-2.24990755	14.26356946	1.24142201	2.34433465	5.91575113	1.19312328	10.53338466
1912	19.11000000	9.62233195	2.32357996	5.55766719	10.04971712	-1.36203380	2.02672937	9.78166436	2.07813050	0.40372869	9.01860122	-4.89044857	4.01565353	10.58322828	0.16938594	-0.59660505	9.74693086	0.23629716	-2.42291786	14.62213601	2.46292743	0.97340001	6.11636869	1.06343965	10.44120794
1913	19.12000000	9.77686527	2.35308257	5.60880530	9.99256474	-1.54533750	2.06099500	9.49531254	1.64036556	0.58942197	8.95511257	-4.85555439	4.43521151	10.53749055	0.17058667	-0.38997326	9.65414772	0.34582867	-2.43613732	14.94226768	2.60583170	-0.65871625	6.04199507	1.41227065	10.46238253
1914	19.13000000	9.87942675	2.35601902	5.58068374	9.93551547	-1.75874817	1.96152755	9.09384573	1.26644826	0.58176003	8.92316927	-4.75826628	4.74581385	10.16033952	0.33659501	-0.13158494	9.42740966	0.50847473	-2.25322585	14.94508548	2.84798854	-2.66266356	5.79231348	1.64207569	10.52289703
1915	19.14000000	10.05105215	2.33335215	5.55901008	9.98371650	-1.99362036	1.85727298	8.56590444	0.61247041	0.68631881	9.03505431	-5.10852451	4.93544174	9.86507373	0.96888991	-0.04759008	9.36153129	0.77374709	-2.64217503	15.15476141	3.42065666	-4.07898153	5.94534689	1.29731435	10.47693126
1916	19.15000000	10.05662217	2.30721076	5.52039845	10.02788566	-1.99203687	1.82004279	8.40135872	0.01966601	0.59277508	9.25051394	-5.52585006	4.90100447	10.35841469	0.72855294	-0.22187908	9.46980997	1.14173593	-2.89138554	15.16382924	3.43709513	-7.26947579	6.07051841	1.74611934	10.67408996
1917	19.16000000	10.01467028	2.29602254	5.63406758	10.14984259	-2.09044839	1.78423084	8.32278047	-0.87139608	0.66034245	9.55266938	-5.68817368	4.77176276	10.89869187	-0.21768800	-0.60042814	9.59646807	1.00953221	-2.47471842	15.76600256	2.62268900	-9.63107559	6.22816711	1.54356508	10.46668136
1918	19.17000000	10.02491150	2.18635790	5.63943657	10.22927131	-2.16310133	1.42341989	7.99596445	-0.93596274	0.27645742	9.78471521	-5.79180171	4.66560636	10.85075329	-1.02821664	-0.72406901	9.82112167	0.38866541	-2.13113353	15.42520761	1.71754039	-11.63275222	5.94233839	1.69786958	10.60400310
1919	19.18000000	9.91448730	2.12947675	5.53359028	10.33898548	-2.18958209	1.15469976	7.99191408	-0.84839574	0.28672139	9.77681665	-5.83726492	4.53288082	10.69621285	-1.30095233	-0.93026779	10.16683786	-0.29535192	-1.87629903	16.97997291	1.90765810	-13.95090795	6.05824342	2.37490346	10.64464740
